Moderustic-Light.ufo
<glyph name="M" format="2">
  <advance width="888"/>
  <unicode hex="004D"/>
  <anchor x="444" y="719" name="top"/>
  <anchor x="444" y="-20" name="bottom"/>
  <outline>
    <contour>
      <point x="97" y="0" type="line" name="ab03"/>
      <point x="157" y="0" type="line"/>
      <point x="157" y="570" type="line" name="iv01"/>
      <point x="423" y="0" type="line" name="ab01"/>
      <point x="465" y="0" type="line"/>
      <point x="731" y="570" type="line" name="iv02"/>
      <point x="731" y="0" type="line" name="ab02"/>
      <point x="791" y="0" type="line"/>
      <point x="791" y="700" type="line" name="at01"/>
      <point x="731" y="700" type="line"/>
      <point x="444" y="85" type="line" name="iv03"/>
      <point x="157" y="700" type="line" name="at02"/>
      <point x="97" y="700" type="line"/>
    </contour>
  </outline>
</glyph>
<glyph name="W" format="2">
  <advance width="960"/>
  <unicode hex="0057"/>
  <anchor x="480" y="719" name="top"/>
  <anchor x="480" y="-20" name="bottom"/>
  <outline>
    <contour>
      <point x="238" y="0" type="line"/>
      <point x="295" y="0" type="line"/>
      <point x="99" y="700" type="line"/>
      <point x="37" y="700" type="line"/>
    </contour>
    <contour>
      <point x="272" y="0" type="line"/>
      <point x="326" y="0" type="line"/>
      <point x="487" y="700" type="line"/>
      <point x="442" y="700" type="line"/>
    </contour>
    <contour>
      <point x="635" y="0" type="line"/>
      <point x="689" y="0" type="line"/>
      <point x="519" y="700" type="line"/>
      <point x="474" y="700" type="line"/>
    </contour>
    <contour>
      <point x="666" y="0" type="line"/>
      <point x="723" y="0" type="line"/>
      <point x="924" y="700" type="line"/>
      <point x="862" y="700" type="line"/>
    </contour>
  </outline>
</glyph>
<glyph name="Lslash" format="2">
  <advance width="554"/>
  <unicode hex="0141"/>
  <outline>
    <contour>
      <point x="98" y="0" type="line" name="ab01"/>
      <point x="484" y="0" type="line"/>
      <point x="484" y="54" type="line" name="sv01"/>
      <point x="158" y="54" type="line"/>
      <point x="158" y="700" type="line" name="at01"/>
      <point x="98" y="700" type="line"/>
    </contour>
    <contour>
      <point x="0" y="231" type="line"/>
      <point x="350" y="469" type="line"/>
      <point x="350" y="518" type="line"/>
      <point x="0" y="280" type="line"/>
    </contour>
  </outline>
</glyph>
<glyph name="tcedilla" format="2">
  <advance width="395"/>
  <unicode hex="0163"/>
  <anchor x="166" y="630" name="top"/>
  <anchor x="242" y="700" name="topright"/>
  <anchor x="205" y="-218" name="bottom"/>
  <outline>
    <contour>
      <point x="320.64" y="53.06" type="line"/>
      <point x="298.45" y="41.32"/>
      <point x="266.37" y="33"/>
      <point x="244" y="33" type="curve" smooth="yes" name="dv02"/>
      <point x="205" y="33"/>
      <point x="195" y="58"/>
      <point x="195" y="131" type="curve" smooth="yes"/>
      <point x="195" y="620" type="line" name="ab01"/>
      <point x="135" y="620" type="line"/>
      <point x="135" y="132" type="line" smooth="yes"/>
      <point x="135" y="25"/>
      <point x="164" y="-20"/>
      <point x="242" y="-20" type="curve" smooth="yes" name="dv01"/>
      <point x="266.95" y="-20"/>
      <point x="284.83" y="-14.11"/>
      <point x="332.7" y="7.86" type="curve"/>
    </contour>
    <contour>
      <point x="23" y="450" type="line" name="dv03"/>
      <point x="335" y="450" type="line"/>
      <point x="335" y="500" type="line"/>
      <point x="23" y="500" type="line" name="dv04"/>
    </contour>
    <contour>
      <point x="114" y="-205" type="line"/>
      <point x="134" y="-211"/>
      <point x="157" y="-218"/>
      <point x="195" y="-218" type="curve" smooth="yes"/>
      <point x="273" y="-218"/>
      <point x="314" y="-188"/>
      <point x="314" y="-140" type="curve" smooth="yes"/>
      <point x="314" y="-92"/>
      <point x="274" y="-64"/>
      <point x="216" y="-64" type="curve"/>
      <point x="256.194" y="12.137" type="line"/>
      <point x="211.194" y="12.137" type="line"/>
      <point x="161" y="-82" type="line"/>
      <point x="173" y="-79"/>
      <point x="183" y="-78"/>
      <point x="193" y="-78" type="curve" smooth="yes"/>
      <point x="238" y="-78"/>
      <point x="262" y="-98"/>
      <point x="262" y="-132" type="curve" smooth="yes"/>
      <point x="262" y="-166"/>
      <point x="237" y="-188"/>
      <point x="192" y="-188" type="curve" smooth="yes"/>
      <point x="171" y="-188"/>
      <point x="147" y="-183"/>
      <point x="129" y="-177" type="curve"/>
    </contour>
  </outline>
</glyph>
<glyph name="Schwa" format="2">
  <advance width="759"/>
  <unicode hex="018F"/>
  <anchor x="380" y="719" name="top"/>
  <anchor x="380" y="-20" name="bottom"/>
  <outline>
    <contour>
      <point x="649" y="338" type="line" name="dv05"/>
      <point x="648" y="392" type="line" name="dv06"/>
      <point x="67" y="392" type="line" name="sh04"/>
      <point x="65" y="377" name=".dv02"/>
      <point x="63" y="356"/>
      <point x="63" y="331" type="curve" smooth="yes" name="sh01"/>
      <point x="63" y="129"/>
      <point x="193" y="-20"/>
      <point x="382" y="-20" type="curve" smooth="yes" name="dv01"/>
      <point x="571" y="-20"/>
      <point x="696" y="129"/>
      <point x="696" y="356" type="curve" smooth="yes" name="sh03"/>
      <point x="696" y="581"/>
      <point x="573" y="720"/>
      <point x="374" y="720" type="curve" smooth="yes"/>
      <point x="268" y="720"/>
      <point x="181" y="680"/>
      <point x="113" y="599" type="curve"/>
      <point x="156" y="556" type="line"/>
      <point x="210" y="628" name=".sh02"/>
      <point x="284" y="665"/>
      <point x="379" y="665" type="curve" smooth="yes"/>
      <point x="543" y="665" name=".dv01"/>
      <point x="635" y="556"/>
      <point x="635" y="360" type="curve" smooth="yes"/>
      <point x="635" y="156" name=".sh01"/>
      <point x="535" y="35"/>
      <point x="380" y="35" type="curve" smooth="yes" name="dv02"/>
      <point x="225" y="35" name=".sh03"/>
      <point x="124" y="155" name=".dv03"/>
      <point x="124" y="338" type="curve" name="sh02"/>
    </contour>
  </outline>
</glyph>
<glyph name="ogonek" format="2">
  <advance width="209"/>
  <unicode hex="02DB"/>
  <outline>
    <contour>
      <point x="174" y="-180" type="line"/>
      <point x="130" y="-168"/>
      <point x="107" y="-140"/>
      <point x="107" y="-100" type="curve" smooth="yes"/>
      <point x="107" y="-59"/>
      <point x="132" y="-19"/>
      <point x="173" y="3" type="curve"/>
      <point x="155" y="6" type="line"/>
      <point x="95" y="-9"/>
      <point x="52" y="-56"/>
      <point x="52" y="-105" type="curve" smooth="yes"/>
      <point x="52" y="-151"/>
      <point x="91" y="-193"/>
      <point x="138" y="-203" type="curve"/>
    </contour>
  </outline>
</glyph>
<glyph name="hungarumlaut" format="2">
  <advance width="389"/>
  <unicode hex="02DD"/>
  <outline>
    <contour>
      <point x="211" y="551" type="line"/>
      <point x="251" y="551" type="line"/>
      <point x="351" y="700" type="line"/>
      <point x="271" y="700" type="line"/>
    </contour>
    <contour>
      <point x="41" y="551" type="line"/>
      <point x="81" y="551" type="line"/>
      <point x="181" y="700" type="line"/>
      <point x="101" y="700" type="line"/>
    </contour>
  </outline>
</glyph>
<glyph name="cedillacomb" format="2">
  <advance width="302"/>
  <unicode hex="0327"/>
  <anchor x="171" y="-10" name="_bottom"/>
  <anchor x="151" y="-208" name="bottom"/>
  <outline>
    <contour>
      <point x="60" y="-195" type="line"/>
      <point x="80" y="-201"/>
      <point x="103" y="-208"/>
      <point x="141" y="-208" type="curve" smooth="yes"/>
      <point x="219" y="-208"/>
      <point x="260" y="-178"/>
      <point x="260" y="-130" type="curve" smooth="yes"/>
      <point x="260" y="-82"/>
      <point x="220" y="-54"/>
      <point x="162" y="-54" type="curve"/>
      <point x="202.194" y="22.137" type="line"/>
      <point x="157.194" y="22.137" type="line"/>
      <point x="107" y="-72" type="line"/>
      <point x="119" y="-69"/>
      <point x="129" y="-68"/>
      <point x="139" y="-68" type="curve" smooth="yes"/>
      <point x="184" y="-68"/>
      <point x="208" y="-88"/>
      <point x="208" y="-122" type="curve" smooth="yes"/>
      <point x="208" y="-156"/>
      <point x="183" y="-178"/>
      <point x="138" y="-178" type="curve" smooth="yes"/>
      <point x="117" y="-178"/>
      <point x="93" y="-173"/>
      <point x="75" y="-167" type="curve"/>
    </contour>
  </outline>
</glyph>
<glyph name="ogonekcomb" format="2">
  <advance width="209"/>
  <unicode hex="0328"/>
  <anchor x="173" y="0" name="_ogonek"/>
  <outline>
    <contour>
      <point x="174" y="-180" type="line"/>
      <point x="130" y="-168"/>
      <point x="107" y="-140"/>
      <point x="107" y="-100" type="curve" smooth="yes"/>
      <point x="107" y="-59"/>
      <point x="132" y="-19"/>
      <point x="173" y="3" type="curve"/>
      <point x="155" y="6" type="line"/>
      <point x="95" y="-9"/>
      <point x="52" y="-56"/>
      <point x="52" y="-105" type="curve" smooth="yes"/>
      <point x="52" y="-151"/>
      <point x="91" y="-193"/>
      <point x="138" y="-203" type="curve"/>
    </contour>
  </outline>
</glyph>
<glyph name="Sigma" format="2">
  <advance width="570"/>
  <unicode hex="03A3"/>
  <outline>
    <contour>
      <point x="51" y="0" type="line"/>
      <point x="494" y="0" type="line"/>
      <point x="494" y="54" type="line"/>
      <point x="146" y="54" type="line"/>
      <point x="361" y="350" type="line"/>
      <point x="146" y="646" type="line"/>
      <point x="494" y="646" type="line"/>
      <point x="494" y="700" type="line"/>
      <point x="51" y="700" type="line"/>
      <point x="51" y="678" type="line"/>
      <point x="289" y="350" type="line"/>
      <point x="51" y="22" type="line"/>
    </contour>
  </outline>
</glyph>
<glyph name="phi" format="2">
  <advance width="712"/>
  <unicode hex="03C6"/>
  <anchor x="356" y="520" name="topgr"/>
  <outline>
    <contour>
      <point x="324" y="-200" type="line"/>
      <point x="384" y="-200" type="line"/>
      <point x="384" y="-20" type="line"/>
      <point x="567" y="-20"/>
      <point x="652" y="66"/>
      <point x="652" y="250" type="curve" smooth="yes"/>
      <point x="652" y="421"/>
      <point x="570" y="520"/>
      <point x="429" y="520" type="curve" smooth="yes"/>
      <point x="357" y="520"/>
      <point x="324" y="490"/>
      <point x="324" y="431" type="curve" smooth="yes"/>
      <point x="324" y="31" type="line"/>
      <point x="182" y="31"/>
      <point x="120" y="94"/>
      <point x="120" y="252" type="curve" smooth="yes"/>
      <point x="120" y="362"/>
      <point x="150" y="428"/>
      <point x="221" y="464" type="curve"/>
      <point x="185" y="500" type="line"/>
      <point x="107" y="464"/>
      <point x="60" y="382"/>
      <point x="60" y="251" type="curve" smooth="yes"/>
      <point x="60" y="79"/>
      <point x="132" y="-20"/>
      <point x="324" y="-20" type="curve"/>
    </contour>
    <contour>
      <point x="384" y="31" type="curve"/>
      <point x="384" y="428" type="line" smooth="yes"/>
      <point x="384" y="456"/>
      <point x="394" y="469"/>
      <point x="428" y="469" type="curve" smooth="yes"/>
      <point x="534" y="469"/>
      <point x="592" y="392"/>
      <point x="592" y="252" type="curve" smooth="yes"/>
      <point x="592" y="92"/>
      <point x="535" y="31"/>
    </contour>
  </outline>
</glyph>
<glyph name="emcyr" format="2">
  <advance width="689"/>
  <unicode hex="043C"/>
  <outline>
    <contour>
      <point x="90" y="0" type="line"/>
      <point x="148" y="0" type="line"/>
      <point x="148" y="395" type="line"/>
      <point x="313" y="120" type="line"/>
      <point x="376" y="120" type="line"/>
      <point x="541" y="395" type="line"/>
      <point x="541" y="0" type="line"/>
      <point x="599" y="0" type="line"/>
      <point x="599" y="500" type="line"/>
      <point x="547" y="500" type="line"/>
      <point x="344" y="163" type="line"/>
      <point x="141" y="500" type="line"/>
      <point x="90" y="500" type="line"/>
    </contour>
  </outline>
</glyph>
<glyph name="shchacyr" format="2">
  <advance width="944"/>
  <unicode hex="0449"/>
  <outline>
    <contour>
      <point x="90" y="0" type="line"/>
      <point x="769" y="0" type="line" smooth="yes"/>
      <point x="837" y="0"/>
      <point x="835" y="-52"/>
      <point x="835" y="-140" type="curve"/>
      <point x="890" y="-140" type="line"/>
      <point x="890" y="17"/>
      <point x="870" y="54"/>
      <point x="769" y="54" type="curve"/>
      <point x="769" y="500" type="line"/>
      <point x="709" y="500" type="line"/>
      <point x="709" y="55" type="line"/>
      <point x="460" y="55" type="line"/>
      <point x="460" y="500" type="line"/>
      <point x="400" y="500" type="line"/>
      <point x="400" y="55" type="line"/>
      <point x="150" y="55" type="line"/>
      <point x="150" y="500" type="line"/>
      <point x="90" y="500" type="line"/>
    </contour>
  </outline>
</glyph>
<glyph name="yucyr" format="2">
  <advance width="838"/>
  <unicode hex="044E"/>
  <anchor x="418" y="-20" name="bottom"/>
  <anchor x="418" y="520" name="top"/>
  <outline>
    <contour>
      <point x="126" y="230" type="line"/>
      <point x="342" y="230" type="line"/>
      <point x="342" y="280" type="line"/>
      <point x="126" y="280" type="line"/>
    </contour>
    <contour>
      <point x="544" y="-20" type="curve" smooth="yes" name="dv01"/>
      <point x="696.253" y="-20"/>
      <point x="778" y="79"/>
      <point x="778" y="250" type="curve" smooth="yes"/>
      <point x="778" y="421"/>
      <point x="696.253" y="520"/>
      <point x="544" y="520" type="curve" smooth="yes" name="at01"/>
      <point x="390.725" y="520"/>
      <point x="310" y="421"/>
      <point x="310" y="250" type="curve" smooth="yes"/>
      <point x="310" y="79"/>
      <point x="390.725" y="-20"/>
    </contour>
    <contour>
      <point x="544" y="31" type="curve" smooth="yes" name="dv02"/>
      <point x="425.598" y="31"/>
      <point x="370" y="105"/>
      <point x="370" y="253" type="curve" smooth="yes"/>
      <point x="370" y="400"/>
      <point x="428.686" y="469"/>
      <point x="544" y="469" type="curve" smooth="yes" name="sv01"/>
      <point x="662.402" y="469"/>
      <point x="718" y="397"/>
      <point x="718" y="248" type="curve" smooth="yes"/>
      <point x="718" y="102"/>
      <point x="660.343" y="31"/>
    </contour>
    <contour>
      <point x="90" y="0" type="line" name="ab01"/>
      <point x="150" y="0" type="line"/>
      <point x="150" y="500" type="line"/>
      <point x="90" y="500" type="line" name="av01"/>
    </contour>
  </outline>
</glyph>
<glyph name="four.superior" format="2">
  <advance width="460"/>
  <unicode hex="2074"/>
  <outline>
    <contour>
      <point x="38" y="457" type="line"/>
      <point x="274" y="457" type="line"/>
      <point x="274" y="344" type="line"/>
      <point x="333" y="344" type="line"/>
      <point x="333" y="457" type="line"/>
      <point x="421" y="457" type="line"/>
      <point x="421" y="507" type="line"/>
      <point x="333" y="507" type="line"/>
      <point x="333" y="830" type="line"/>
      <point x="253" y="830" type="line"/>
      <point x="38" y="486" type="line"/>
    </contour>
    <contour>
      <point x="111" y="507" type="line"/>
      <point x="274" y="768" type="line"/>
      <point x="274" y="507" type="line"/>
    </contour>
  </outline>
</glyph>
<glyph name="integral" format="2">
  <advance width="452"/>
  <unicode hex="222B"/>
  <outline>
    <contour>
      <point x="-77" y="-102" type="line"/>
      <point x="-31" y="-133"/>
      <point x="16" y="-153"/>
      <point x="80" y="-153" type="curve" smooth="yes"/>
      <point x="194" y="-153"/>
      <point x="246.723" y="-87.971"/>
      <point x="251" y="71" type="curve" smooth="yes"/>
      <point x="263" y="517" type="line" smooth="yes"/>
      <point x="266.228" y="636.994"/>
      <point x="298" y="686"/>
      <point x="385" y="686" type="curve" smooth="yes"/>
      <point x="413" y="686"/>
      <point x="465" y="681"/>
      <point x="521" y="634" type="curve"/>
      <point x="544" y="689" type="line"/>
      <point x="506" y="722"/>
      <point x="448" y="740"/>
      <point x="389" y="740" type="curve" smooth="yes"/>
      <point x="271" y="740"/>
      <point x="207.248" y="666.97"/>
      <point x="203" y="516" type="curve" smooth="yes"/>
      <point x="190" y="54" type="line" smooth="yes"/>
      <point x="186.877" y="-56.974"/>
      <point x="156" y="-99"/>
      <point x="82" y="-99" type="curve" smooth="yes"/>
      <point x="48" y="-99"/>
      <point x="5" y="-90"/>
      <point x="-54" y="-36" type="curve"/>
    </contour>
  </outline>
</glyph>
<glyph name="C.ss09" format="2">
  <advance width="753"/>
  <anchor x="397" y="-19" name="bottom"/>
  <anchor x="377" y="719" name="top"/>
  <outline>
    <contour>
      <point x="630" y="261" type="line"/>
      <point x="610" y="120"/>
      <point x="520" y="35"/>
      <point x="391" y="35" type="curve" smooth="yes"/>
      <point x="231" y="35"/>
      <point x="123" y="164"/>
      <point x="123" y="354" type="curve" smooth="yes"/>
      <point x="123" y="541"/>
      <point x="227" y="665"/>
      <point x="385" y="665" type="curve" smooth="yes"/>
      <point x="497" y="665"/>
      <point x="580" y="602"/>
      <point x="620" y="485" type="curve"/>
      <point x="680" y="485" type="line"/>
      <point x="635" y="638"/>
      <point x="534" y="720"/>
      <point x="389" y="720" type="curve" smooth="yes"/>
      <point x="195" y="720"/>
      <point x="63" y="572"/>
      <point x="63" y="355" type="curve" smooth="yes"/>
      <point x="63" y="135"/>
      <point x="198" y="-20"/>
      <point x="390" y="-20" type="curve" smooth="yes"/>
      <point x="548" y="-20"/>
      <point x="659" y="84"/>
      <point x="690" y="261" type="curve"/>
    </contour>
  </outline>
</glyph>
<glyph name="Ljecyr.ss08" format="2">
  <advance width="920"/>
  <outline>
    <contour>
      <point x="577" y="0" type="line"/>
      <point x="617" y="0" type="line" smooth="yes"/>
      <point x="769" y="0"/>
      <point x="851" y="65.816"/>
      <point x="851" y="201.763" type="curve" smooth="yes"/>
      <point x="851" y="333.395"/>
      <point x="773" y="410"/>
      <point x="621" y="410" type="curve" smooth="yes"/>
      <point x="454" y="410" type="line"/>
      <point x="469" y="356" type="line"/>
      <point x="612" y="356" type="line" smooth="yes"/>
      <point x="742" y="356"/>
      <point x="791" y="312.699"/>
      <point x="791" y="200.559" type="curve" smooth="yes"/>
      <point x="791" y="92.86"/>
      <point x="745" y="54"/>
      <point x="617" y="54" type="curve" smooth="yes"/>
      <point x="589" y="54" type="line"/>
      <point x="563" y="2" type="line"/>
    </contour>
    <contour>
      <point x="386" y="700" type="line"/>
      <point x="323" y="700" type="line"/>
      <point x="550" y="0" type="line"/>
      <point x="613" y="0" type="line"/>
    </contour>
    <contour>
      <point x="332" y="700" type="line"/>
      <point x="269" y="700" type="line"/>
      <point x="42" y="0" type="line"/>
      <point x="105" y="0" type="line"/>
    </contour>
  </outline>
</glyph>
<glyph name="Schwa.ss10" format="2">
  <advance width="759"/>
  <anchor x="380" y="719" name="top"/>
  <anchor x="380" y="-20" name="bottom"/>
  <outline>
    <contour>
      <point x="641" y="333" type="line" name="dv05"/>
      <point x="640" y="383" type="line" name="dv06"/>
      <point x="67" y="383" type="line" name="sh04"/>
      <point x="65" y="373"/>
      <point x="63" y="362"/>
      <point x="63" y="337" type="curve" smooth="yes" name="sh01"/>
      <point x="63" y="135"/>
      <point x="189" y="-20"/>
      <point x="382" y="-20" type="curve" smooth="yes" name="dv01"/>
      <point x="571" y="-20"/>
      <point x="696" y="129"/>
      <point x="696" y="356" type="curve" smooth="yes" name="sh03"/>
      <point x="696" y="581"/>
      <point x="574" y="720"/>
      <point x="377" y="720" type="curve" smooth="yes"/>
      <point x="274" y="720"/>
      <point x="187" y="682"/>
      <point x="119" y="603" type="curve"/>
      <point x="142" y="537" type="line"/>
      <point x="213" y="643"/>
      <point x="297" y="665"/>
      <point x="377" y="665" type="curve" smooth="yes"/>
      <point x="535" y="665"/>
      <point x="636" y="570"/>
      <point x="636" y="360" type="curve" smooth="yes"/>
      <point x="636" y="164"/>
      <point x="540" y="35"/>
      <point x="379" y="35" type="curve" smooth="yes" name="dv02"/>
      <point x="231" y="35"/>
      <point x="124" y="145"/>
      <point x="124" y="333" type="curve" name="sh02"/>
    </contour>
  </outline>
</glyph>
<glyph name="ae.ss14" format="2">
  <advance width="853"/>
  <anchor x="410" y="500" name="top"/>
  <anchor x="410" y="0" name="bottom"/>
  <outline>
    <contour>
      <point x="75.63" y="383" type="line"/>
      <point x="105.39" y="434"/>
      <point x="171.63" y="469"/>
      <point x="247.47" y="469" type="curve" smooth="yes"/>
      <point x="322.35" y="469"/>
      <point x="366.51" y="435"/>
      <point x="366.51" y="378" type="curve" smooth="yes"/>
      <point x="366.51" y="313"/>
      <point x="309.87" y="281"/>
      <point x="215.79" y="281" type="curve" smooth="yes"/>
      <point x="99.63" y="281"/>
      <point x="33.39" y="232"/>
      <point x="33.39" y="135" type="curve" smooth="yes"/>
      <point x="33.39" y="38"/>
      <point x="99.63" y="-20"/>
      <point x="189.87" y="-20" type="curve" smooth="yes"/>
      <point x="294.97" y="-20"/>
      <point x="368.32" y="62.11"/>
      <point x="384.37" y="121.6" type="curve"/>
      <point x="425.748" y="19.5"/>
      <point x="483.285" y="-20"/>
      <point x="590.63" y="-20" type="curve" smooth="yes"/>
      <point x="661.14" y="-20"/>
      <point x="729.24" y="7"/>
      <point x="772.29" y="55" type="curve"/>
      <point x="753.29" y="117" type="line"/>
      <point x="721.94" y="65"/>
      <point x="659.24" y="31"/>
      <point x="589.89" y="31" type="curve" smooth="yes"/>
      <point x="462.848" y="31"/>
      <point x="425.07" y="139.926"/>
      <point x="425.07" y="248" type="curve"/>
      <point x="794.14" y="248" type="line"/>
      <point x="798.89" y="415"/>
      <point x="712.63" y="520"/>
      <point x="583.71" y="520" type="curve" smooth="yes"/>
      <point x="509.118" y="520"/>
      <point x="448.29" y="485.53"/>
      <point x="410.34" y="425.71" type="curve"/>
      <point x="386.75" y="485.38"/>
      <point x="330.67" y="520"/>
      <point x="241.549" y="520" type="curve" smooth="yes"/>
      <point x="162.359" y="520"/>
      <point x="97.462" y="493"/>
      <point x="56.43" y="445" type="curve"/>
    </contour>
    <contour>
      <point x="367.47" y="166" type="line" smooth="yes"/>
      <point x="367.47" y="109"/>
      <point x="297.39" y="30"/>
      <point x="203.31" y="30" type="curve" smooth="yes"/>
      <point x="136.11" y="30"/>
      <point x="91" y="71"/>
      <point x="91" y="133" type="curve" smooth="yes"/>
      <point x="91" y="185"/>
      <point x="121.71" y="236"/>
      <point x="220.59" y="236" type="curve" smooth="yes"/>
      <point x="309.87" y="236"/>
      <point x="356.91" y="278"/>
      <point x="367.47" y="311" type="curve"/>
    </contour>
    <contour>
      <point x="426.49" y="293" type="line"/>
      <point x="426.49" y="408"/>
      <point x="503.21" y="470"/>
      <point x="582.76" y="470" type="curve" smooth="yes"/>
      <point x="669.9" y="470"/>
      <point x="735.24" y="396"/>
      <point x="735.24" y="293" type="curve"/>
    </contour>
  </outline>
</glyph>
<glyph name="austral.osf" format="2">
  <advance width="718"/>
  <outline>
    <contour>
      <point x="43" y="123" type="line"/>
      <point x="675" y="123" type="line"/>
      <point x="675" y="156" type="line"/>
      <point x="43" y="156" type="line"/>
    </contour>
    <contour>
      <point x="43" y="222" type="line"/>
      <point x="675" y="222" type="line"/>
      <point x="675" y="255" type="line"/>
      <point x="43" y="255" type="line"/>
    </contour>
    <contour>
      <point x="129" y="0" type="line"/>
      <point x="193" y="0" type="line"/>
      <point x="359" y="492" type="line"/>
      <point x="525" y="0" type="line"/>
      <point x="589" y="0" type="line"/>
      <point x="397" y="540" type="line"/>
      <point x="321" y="540" type="line"/>
    </contour>
  </outline>
</glyph>
<glyph name="cent.ss12" format="2">
  <advance width="570"/>
  <outline>
    <contour>
      <point x="290" y="610" type="line"/>
      <point x="340" y="610" type="line"/>
      <point x="340" y="730" type="line"/>
      <point x="290" y="730" type="line"/>
    </contour>
    <contour>
      <point x="291" y="-31" type="line"/>
      <point x="339" y="-31" type="line"/>
      <point x="339" y="90" type="line"/>
      <point x="291" y="89" type="line"/>
    </contour>
    <contour>
      <point x="483" y="205" type="line"/>
      <point x="428" y="156"/>
      <point x="383" y="131"/>
      <point x="319" y="131" type="curve" smooth="yes"/>
      <point x="205" y="131"/>
      <point x="139" y="212"/>
      <point x="139" y="352" type="curve" smooth="yes"/>
      <point x="139" y="498"/>
      <point x="211" y="571"/>
      <point x="325" y="571" type="curve" smooth="yes"/>
      <point x="376" y="571"/>
      <point x="412" y="556"/>
      <point x="484" y="498" type="curve"/>
      <point x="491" y="542" type="line"/>
      <point x="441" y="595"/>
      <point x="381" y="621"/>
      <point x="309" y="621" type="curve" smooth="yes"/>
      <point x="163" y="621"/>
      <point x="79" y="512"/>
      <point x="79" y="354" type="curve" smooth="yes"/>
      <point x="79" y="192"/>
      <point x="168" y="81"/>
      <point x="314" y="81" type="curve" smooth="yes"/>
      <point x="381" y="81"/>
      <point x="433" y="104"/>
      <point x="490" y="160" type="curve"/>
    </contour>
  </outline>
</glyph>
<glyph name="dcroat.ss02" format="2">
  <advance width="625"/>
  <outline>
    <contour>
      <point x="196.455" y="632" type="line"/>
      <point x="607.447" y="632" type="line"/>
      <point x="607.447" y="664" type="line"/>
      <point x="196.455" y="664" type="line"/>
    </contour>
    <contour>
      <point x="462" y="150" type="line" name="ab03"/>
      <point x="522" y="150" type="line"/>
      <point x="522" y="750" type="line" name="ab01"/>
      <point x="462" y="750" type="line"/>
    </contour>
    <contour>
      <point x="279" y="-20" type="curve" smooth="yes" name="dv01"/>
      <point x="408" y="-20"/>
      <point x="480" y="81"/>
      <point x="480" y="251" type="curve" smooth="yes"/>
      <point x="480" y="423"/>
      <point x="406" y="520"/>
      <point x="274" y="520" type="curve" smooth="yes" name="at01"/>
      <point x="135" y="520"/>
      <point x="60" y="411"/>
      <point x="60" y="258" type="curve" smooth="yes"/>
      <point x="60" y="99"/>
      <point x="140" y="-20"/>
    </contour>
    <contour>
      <point x="284" y="30" type="curve" smooth="yes" name="dv02"/>
      <point x="185" y="30"/>
      <point x="120" y="118"/>
      <point x="120" y="258" type="curve" smooth="yes"/>
      <point x="120" y="390"/>
      <point x="177" y="469"/>
      <point x="280" y="469" type="curve" smooth="yes" name="sv01"/>
      <point x="389" y="469"/>
      <point x="462" y="381"/>
      <point x="462" y="254" type="curve" smooth="yes"/>
      <point x="462" y="126"/>
      <point x="387" y="30"/>
    </contour>
    <contour>
      <point x="597" y="48" type="line"/>
      <point x="581.747" y="39.66"/>
      <point x="557.064" y="33"/>
      <point x="545.721" y="33" type="curve" smooth="yes" name="dv02"/>
      <point x="523.745" y="33"/>
      <point x="522" y="58"/>
      <point x="522" y="131" type="curve" smooth="yes"/>
      <point x="522" y="325.077" type="line" name="ab01"/>
      <point x="462" y="325.077" type="line"/>
      <point x="462" y="132" type="line" smooth="yes"/>
      <point x="462" y="25"/>
      <point x="483.109" y="-20"/>
      <point x="539.884" y="-20" type="curve" smooth="yes" name="dv01"/>
      <point x="556.626" y="-20"/>
      <point x="581.747" y="-12.845"/>
      <point x="609" y="3" type="curve"/>
    </contour>
  </outline>
</glyph>
<glyph name="dollar.ss10" format="2">
  <advance width="580"/>
  <outline>
    <contour>
      <point x="59" y="110.801" type="line"/>
      <point x="130" y="32.25"/>
      <point x="196" y="0.072"/>
      <point x="297" y="0.072" type="curve" smooth="yes"/>
      <point x="427" y="0.072"/>
      <point x="511" y="71.998"/>
      <point x="511" y="178.942" type="curve" smooth="yes"/>
      <point x="511" y="305.975"/>
      <point x="406.795" y="337.746"/>
      <point x="307.236" y="368.101" type="curve" smooth="yes"/>
      <point x="216.175" y="395.864"/>
      <point x="129" y="422.443"/>
      <point x="129" y="519.646" type="curve" smooth="yes"/>
      <point x="129" y="601.036"/>
      <point x="181" y="648.356"/>
      <point x="275" y="648.356" type="curve" smooth="yes"/>
      <point x="330" y="648.356"/>
      <point x="409" y="630.374"/>
      <point x="478" y="527.217" type="curve"/>
      <point x="501" y="589.679" type="line"/>
      <point x="432" y="668.23"/>
      <point x="365" y="700.408"/>
      <point x="268" y="700.408" type="curve" smooth="yes"/>
      <point x="155" y="700.408"/>
      <point x="69" y="628.482"/>
      <point x="69" y="521.538" type="curve" smooth="yes"/>
      <point x="69" y="393.646"/>
      <point x="174.618" y="359.954"/>
      <point x="274.782" y="328.001" type="curve" smooth="yes"/>
      <point x="365.108" y="299.187"/>
      <point x="451" y="271.787"/>
      <point x="451" y="177.995" type="curve" smooth="yes"/>
      <point x="451" y="96.605"/>
      <point x="395" y="52.124"/>
      <point x="296" y="52.124" type="curve" smooth="yes"/>
      <point x="237" y="52.124"/>
      <point x="153" y="70.106"/>
      <point x="82" y="173.263" type="curve"/>
    </contour>
    <contour>
      <point x="263" y="-101" type="line"/>
      <point x="301" y="-101" type="line"/>
      <point x="301" y="780" type="line"/>
      <point x="263" y="780" type="line"/>
    </contour>
  </outline>
</glyph>
<glyph name="dotlessi.ss11" format="2">
  <advance width="370"/>
  <anchor x="185" y="520" name="top"/>
  <anchor x="183" y="-20" name="bottom"/>
  <anchor x="325" y="-3" name="ogonek"/>
  <outline>
    <contour>
      <point x="155" y="0" type="line" name="ab01"/>
      <point x="215" y="0" type="line"/>
      <point x="215" y="500" type="line"/>
      <point x="155" y="500" type="line" name="av01"/>
    </contour>
    <contour>
      <point x="45" y="450" type="line"/>
      <point x="325" y="450" type="line"/>
      <point x="325" y="500" type="line"/>
      <point x="45" y="500" type="line"/>
    </contour>
    <contour>
      <point x="45" y="0" type="line"/>
      <point x="325" y="0" type="line"/>
      <point x="325" y="50" type="line"/>
      <point x="45" y="50" type="line"/>
    </contour>
  </outline>
</glyph>
<glyph name="epsilon.ss12" format="2">
  <advance width="480"/>
  <anchor x="240" y="519" name="topgr"/>
  <outline>
    <contour>
      <point x="422" y="103" type="line"/>
      <point x="346.242" y="44"/>
      <point x="299.156" y="31"/>
      <point x="245.928" y="31" type="curve" smooth="yes"/>
      <point x="161.992" y="31"/>
      <point x="119" y="64"/>
      <point x="119" y="136" type="curve" smooth="yes"/>
      <point x="119" y="208"/>
      <point x="161.55" y="234"/>
      <point x="351" y="234" type="curve"/>
      <point x="351" y="279" type="line"/>
      <point x="184.668" y="279"/>
      <point x="137" y="308"/>
      <point x="137" y="376" type="curve" smooth="yes"/>
      <point x="137" y="434"/>
      <point x="171.889" y="469"/>
      <point x="250.901" y="469" type="curve" smooth="yes"/>
      <point x="302.208" y="469"/>
      <point x="337.097" y="454"/>
      <point x="422" y="397" type="curve"/>
      <point x="429" y="442" type="line"/>
      <point x="373.522" y="494"/>
      <point x="313.398" y="520"/>
      <point x="245.123" y="520" type="curve" smooth="yes"/>
      <point x="149.333" y="520"/>
      <point x="78" y="470"/>
      <point x="78" y="379" type="curve" smooth="yes"/>
      <point x="78" y="306"/>
      <point x="123.833" y="270"/>
      <point x="243" y="260" type="curve"/>
      <point x="116.945" y="261"/>
      <point x="59" y="221"/>
      <point x="59" y="133" type="curve" smooth="yes"/>
      <point x="59" y="40"/>
      <point x="125.169" y="-20"/>
      <point x="239.183" y="-20" type="curve" smooth="yes"/>
      <point x="312.478" y="-20"/>
      <point x="372.538" y="5"/>
      <point x="429" y="58" type="curve"/>
    </contour>
  </outline>
</glyph>
<glyph name="five.osf.ss09" format="2">
  <advance width="594"/>
  <outline>
    <contour>
      <point x="57" y="50" type="line"/>
      <point x="80" y="-91"/>
      <point x="160" y="-168"/>
      <point x="297" y="-168" type="curve" smooth="yes"/>
      <point x="446" y="-168"/>
      <point x="534" y="-76"/>
      <point x="534" y="76" type="curve" smooth="yes"/>
      <point x="534" y="218"/>
      <point x="457" y="308"/>
      <point x="315" y="308" type="curve" smooth="yes"/>
      <point x="237" y="308"/>
      <point x="174" y="281"/>
      <point x="145" y="235" type="curve"/>
      <point x="182" y="498" type="line"/>
      <point x="486" y="498" type="line"/>
      <point x="494" y="552" type="line"/>
      <point x="128" y="552" type="line"/>
      <point x="69" y="136" type="line"/>
      <point x="129" y="136" type="line"/>
      <point x="157" y="219"/>
      <point x="219" y="255"/>
      <point x="306" y="255" type="curve" smooth="yes"/>
      <point x="424" y="255"/>
      <point x="473" y="190"/>
      <point x="473" y="75" type="curve" smooth="yes"/>
      <point x="473" y="-55"/>
      <point x="410" y="-113"/>
      <point x="301" y="-113" type="curve" smooth="yes"/>
      <point x="191" y="-113"/>
      <point x="128" y="-53"/>
      <point x="117" y="50" type="curve"/>
    </contour>
  </outline>
</glyph>
<glyph name="five.ss12" format="2">
  <advance width="604"/>
  <outline>
    <contour>
      <point x="43" y="105" type="line"/>
      <point x="117" y="20"/>
      <point x="187" y="-20"/>
      <point x="293" y="-20" type="curve" smooth="yes"/>
      <point x="451" y="-20"/>
      <point x="544" y="69"/>
      <point x="544" y="223" type="curve" smooth="yes"/>
      <point x="544" y="364"/>
      <point x="466" y="450"/>
      <point x="322" y="450" type="curve" smooth="yes"/>
      <point x="257" y="450"/>
      <point x="187" y="433"/>
      <point x="151" y="409" type="curve"/>
      <point x="202" y="644" type="line"/>
      <point x="513" y="644" type="line"/>
      <point x="528" y="700" type="line"/>
      <point x="154" y="700" type="line"/>
      <point x="71" y="330" type="line"/>
      <point x="166" y="376"/>
      <point x="235" y="398"/>
      <point x="306" y="398" type="curve" smooth="yes"/>
      <point x="428" y="398"/>
      <point x="483" y="343"/>
      <point x="483" y="223" type="curve" smooth="yes"/>
      <point x="483" y="96"/>
      <point x="419" y="35"/>
      <point x="286" y="35" type="curve" smooth="yes"/>
      <point x="211" y="35"/>
      <point x="132" y="60"/>
      <point x="50" y="154" type="curve"/>
    </contour>
  </outline>
</glyph>
<glyph name="manat.ss09" format="2">
  <advance width="747"/>
  <outline>
    <contour>
      <point x="342" y="115" type="line"/>
      <point x="402" y="151" type="line"/>
      <point x="402" y="744" type="line"/>
      <point x="342" y="708" type="line"/>
    </contour>
    <contour>
      <point x="176" y="0" type="line"/>
      <point x="176" y="341" type="line" smooth="yes"/>
      <point x="176" y="491"/>
      <point x="250.787" y="565"/>
      <point x="372.973" y="565" type="curve" smooth="yes" name="dv02"/>
      <point x="496.213" y="565"/>
      <point x="571" y="490"/>
      <point x="571" y="341" type="curve" smooth="yes"/>
      <point x="571" y="0" type="line"/>
      <point x="631" y="0" type="line" name="at02"/>
      <point x="631" y="338" type="line" smooth="yes"/>
      <point x="631" y="511"/>
      <point x="537.364" y="620"/>
      <point x="371.939" y="620" type="curve" smooth="yes" name="dv01"/>
      <point x="206.515" y="620"/>
      <point x="116" y="512"/>
      <point x="116" y="338" type="curve" smooth="yes"/>
      <point x="116" y="0" type="line" name="at01"/>
    </contour>
  </outline>
</glyph>
<glyph name="nine.osf" format="2">
  <advance width="631"/>
  <outline>
    <contour>
      <point x="88" y="-88" type="line"/>
      <point x="137" y="-140"/>
      <point x="220" y="-171"/>
      <point x="306" y="-171" type="curve" smooth="yes"/>
      <point x="470" y="-171"/>
      <point x="569" y="-26"/>
      <point x="569" y="215" type="curve" smooth="yes"/>
      <point x="569" y="447"/>
      <point x="478" y="569"/>
      <point x="313" y="569" type="curve" smooth="yes"/>
      <point x="157" y="569"/>
      <point x="58" y="460"/>
      <point x="58" y="323" type="curve" smooth="yes"/>
      <point x="58" y="182"/>
      <point x="162" y="91"/>
      <point x="300" y="91" type="curve" smooth="yes"/>
      <point x="413.156" y="91"/>
      <point x="496.115" y="152.51"/>
      <point x="520.494" y="222.309" type="curve"/>
      <point x="515.705" y="231.975" type="line"/>
      <point x="521.612" y="19.665"/>
      <point x="438.289" y="-116"/>
      <point x="304" y="-116" type="curve" smooth="yes"/>
      <point x="236" y="-116"/>
      <point x="178" y="-93"/>
      <point x="131" y="-45" type="curve"/>
    </contour>
    <contour>
      <point x="119" y="323" type="curve" smooth="yes"/>
      <point x="119" y="439"/>
      <point x="191" y="514"/>
      <point x="306" y="514" type="curve" smooth="yes"/>
      <point x="418" y="514"/>
      <point x="499" y="443"/>
      <point x="499" y="326" type="curve" smooth="yes"/>
      <point x="499" y="214"/>
      <point x="425" y="141"/>
      <point x="305" y="141" type="curve" smooth="yes"/>
      <point x="195" y="141"/>
      <point x="119" y="203"/>
    </contour>
  </outline>
</glyph>
<glyph name="one.ss09" format="2">
  <advance width="514"/>
  <outline>
    <contour>
      <point x="242" y="0" type="line"/>
      <point x="302" y="0" type="line"/>
      <point x="302" y="700" type="line"/>
      <point x="247" y="700" type="line"/>
      <point x="247" y="615.645"/>
      <point x="171.8" y="559.645"/>
      <point x="68" y="560" type="curve"/>
      <point x="68" y="506" type="line"/>
      <point x="168.8" y="506"/>
      <point x="242" y="551.6"/>
      <point x="242" y="620" type="curve"/>
    </contour>
    <contour>
      <point x="60" y="0" type="line"/>
      <point x="464" y="0" type="line"/>
      <point x="464" y="54" type="line"/>
      <point x="60" y="54" type="line"/>
    </contour>
  </outline>
</glyph>
<glyph name="question.ss12" format="2">
  <advance width="551"/>
  <outline>
    <contour>
      <point x="252" y="-20" type="curve" smooth="yes"/>
      <point x="277" y="-20"/>
      <point x="297" y="0"/>
      <point x="297" y="25" type="curve" smooth="yes"/>
      <point x="297" y="49"/>
      <point x="277" y="70"/>
      <point x="252" y="70" type="curve" smooth="yes"/>
      <point x="226" y="70"/>
      <point x="207" y="49"/>
      <point x="207" y="25" type="curve" smooth="yes"/>
      <point x="207" y="0"/>
      <point x="226" y="-20"/>
    </contour>
    <contour>
      <point x="216" y="250" type="line"/>
      <point x="276" y="250" type="line"/>
      <point x="276" y="332" type="line"/>
      <point x="375" y="364"/>
      <point x="505" y="452"/>
      <point x="505" y="584" type="curve" smooth="yes"/>
      <point x="505" y="688"/>
      <point x="423" y="767"/>
      <point x="296" y="767" type="curve" smooth="yes"/>
      <point x="200" y="767"/>
      <point x="131" y="725"/>
      <point x="59" y="642" type="curve"/>
      <point x="65" y="593" type="line"/>
      <point x="133" y="669"/>
      <point x="213" y="712"/>
      <point x="298" y="712" type="curve" smooth="yes"/>
      <point x="390" y="712"/>
      <point x="445" y="664"/>
      <point x="445" y="574" type="curve" smooth="yes"/>
      <point x="445" y="483"/>
      <point x="391" y="414"/>
      <point x="216" y="345" type="curve"/>
    </contour>
  </outline>
</glyph>
<glyph name="schwa.ss10" format="2">
  <advance width="552"/>
  <anchor x="280" y="-20" name="bottom"/>
  <anchor x="280" y="520" name="top"/>
  <outline>
    <contour>
      <point x="441" y="232" type="line"/>
      <point x="441" y="90"/>
      <point x="368" y="30"/>
      <point x="272" y="30" type="curve" smooth="yes"/>
      <point x="176" y="30"/>
      <point x="110" y="94"/>
      <point x="110" y="232" type="curve"/>
    </contour>
    <contour>
      <point x="53" y="276" type="line"/>
      <point x="52" y="267"/>
      <point x="50" y="259"/>
      <point x="50" y="235" type="curve" smooth="yes"/>
      <point x="50" y="81"/>
      <point x="133" y="-20"/>
      <point x="274" y="-20" type="curve" smooth="yes"/>
      <point x="417" y="-20"/>
      <point x="501" y="83"/>
      <point x="501" y="245" type="curve" smooth="yes"/>
      <point x="501" y="412"/>
      <point x="417" y="520"/>
      <point x="271" y="520" type="curve" smooth="yes"/>
      <point x="198" y="520"/>
      <point x="125" y="493"/>
      <point x="82" y="445" type="curve"/>
      <point x="102" y="383" type="line"/>
      <point x="133" y="435"/>
      <point x="202" y="470"/>
      <point x="271" y="470" type="curve" smooth="yes"/>
      <point x="371" y="470"/>
      <point x="440" y="395"/>
      <point x="440" y="276" type="curve"/>
    </contour>
  </outline>
</glyph>
<glyph name="uogonek.ss05" format="2">
  <advance width="580"/>
  <anchor x="290" y="-20" name="bottom"/>
  <anchor x="290" y="520" name="top"/>
  <outline>
    <contour>
      <point x="433" y="203" type="line"/>
      <point x="427" y="263" type="line"/>
      <point x="427" y="107"/>
      <point x="376" y="30"/>
      <point x="274" y="30" type="curve" smooth="yes"/>
      <point x="188" y="30"/>
      <point x="146" y="84"/>
      <point x="146" y="180" type="curve" smooth="yes"/>
      <point x="146" y="500" type="line"/>
      <point x="86" y="500" type="line"/>
      <point x="86" y="196" type="line" smooth="yes"/>
      <point x="86" y="51"/>
      <point x="147" y="-20"/>
      <point x="253" y="-20" type="curve" smooth="yes"/>
      <point x="348" y="-20"/>
      <point x="406" y="38"/>
      <point x="433" y="130" type="curve"/>
    </contour>
    <contour>
      <point x="427" y="0" type="line" name="ab01"/>
      <point x="487" y="0" type="line"/>
      <point x="487" y="500" type="line"/>
      <point x="427" y="500" type="line" name="av01"/>
    </contour>
    <contour>
      <point x="488" y="-183" type="line"/>
      <point x="444" y="-171"/>
      <point x="421" y="-143"/>
      <point x="421" y="-103" type="curve" smooth="yes"/>
      <point x="421" y="-62"/>
      <point x="446" y="-22"/>
      <point x="487" y="0" type="curve"/>
      <point x="469" y="3" type="line"/>
      <point x="409" y="-12"/>
      <point x="366" y="-59"/>
      <point x="366" y="-108" type="curve" smooth="yes"/>
      <point x="366" y="-154"/>
      <point x="405" y="-196"/>
      <point x="452" y="-206" type="curve"/>
    </contour>
  </outline>
</glyph>
<glyph name="vecyr.loclBGR" format="2">
  <advance width="527"/>
  <anchor x="274" y="736" name="top"/>
  <anchor x="263" y="-20" name="bottom"/>
  <outline>
    <contour>
      <point x="376.22" y="394.8" type="curve"/>
      <point x="426.06" y="426.05"/>
      <point x="456" y="481.02"/>
      <point x="456" y="555.62" type="curve" smooth="yes"/>
      <point x="456" y="673.02"/>
      <point x="390" y="750.02"/>
      <point x="274.23" y="750.02" type="curve" smooth="yes"/>
      <point x="149.057" y="750.02"/>
      <point x="90.37" y="681.772"/>
      <point x="90.37" y="536.206" type="curve" smooth="yes"/>
      <point x="90.37" y="180.586" type="line" smooth="yes"/>
      <point x="90.37" y="45.836"/>
      <point x="154.011" y="-20"/>
      <point x="284.27" y="-20" type="curve" smooth="yes"/>
      <point x="406.38" y="-20"/>
      <point x="476" y="67"/>
      <point x="476" y="199.63" type="curve" smooth="yes"/>
      <point x="476" y="295.93"/>
      <point x="439.91" y="363.3"/>
    </contour>
    <contour>
      <point x="289.89" y="365" type="line" smooth="yes"/>
      <point x="366.83" y="365"/>
      <point x="416" y="302.89"/>
      <point x="416" y="196.68" type="curve" smooth="yes"/>
      <point x="416" y="92.09"/>
      <point x="369.06" y="30"/>
      <point x="282.55" y="30" type="curve" smooth="yes"/>
      <point x="191.214" y="30"/>
      <point x="150.433" y="75.325"/>
      <point x="150.327" y="176.956" type="curve" smooth="yes"/>
      <point x="150.13" y="365" type="line"/>
    </contour>
    <contour>
      <point x="150.316" y="539.826" type="line" smooth="yes"/>
      <point x="150.428" y="651.212"/>
      <point x="188.529" y="700.02"/>
      <point x="275.37" y="700.02" type="curve" smooth="yes"/>
      <point x="355.37" y="700.02"/>
      <point x="396" y="647.19"/>
      <point x="396" y="558.21" type="curve" smooth="yes"/>
      <point x="396" y="467.85"/>
      <point x="350" y="415.02"/>
      <point x="278" y="415.02" type="curve" smooth="yes"/>
      <point x="150.19" y="415.02" type="line"/>
    </contour>
  </outline>
</glyph>
